<svg width="94" height="24" viewBox="0 0 94 24" fill="none" xmlns="http://www.w3.org/2000/svg">
<path d="M0 0H3.57317L7.19528 10.5746L7.83157 12.8318H8.02732L8.71266 10.5746L12.4816 0H16.0548L9.6671 17.5669H6.1918L0 0ZM24.7918 15.9967H24.596C24.2208 16.6019 23.715 17.0804 23.0786 17.432C22.4423 17.7836 21.7162 17.9595 20.9005 17.9595C19.3831 17.9595 18.2533 17.4934 17.5109 16.5611C16.7685 15.6287 16.3973 14.3856 16.3973 12.8318V5.54494H19.6034V12.4392C19.6034 13.3061 19.795 13.9481 20.1786 14.3652C20.5619 14.7822 21.1208 14.9908 21.8549 14.9908C22.2955 14.9908 22.683 14.8968 23.0174 14.7087C23.3519 14.5206 23.6374 14.2671 23.874 13.9481C24.1106 13.6292 24.29 13.2529 24.4124 12.8195C24.5348 12.386 24.596 11.924 24.596 11.4333V5.54494H27.8021V17.5669H24.7918V15.9967V15.9967ZM41.4094 14.6719C40.8547 15.6533 40.1082 16.4466 39.1701 17.0518C38.2318 17.6569 37.0858 17.9595 35.7315 17.9595C34.8178 17.9595 33.9734 17.8001 33.1984 17.4811C32.4234 17.1621 31.7504 16.7165 31.1794 16.144C30.6083 15.5715 30.1638 14.8968 29.8456 14.1199C29.5274 13.3429 29.3684 12.4882 29.3684 11.5559C29.3684 10.6891 29.5234 9.86706 29.8333 9.09012C30.1434 8.31329 30.5757 7.63447 31.1304 7.05376C31.6852 6.47318 32.3419 6.01106 33.1006 5.66753C33.8592 5.32412 34.6954 5.15235 35.6091 5.15235C36.5718 5.15235 37.4283 5.31176 38.1789 5.63071C38.9294 5.94976 39.5576 6.39129 40.0634 6.95565C40.5692 7.52 40.9525 8.18647 41.2135 8.95518C41.4747 9.724 41.6052 10.5582 41.6052 11.4578V11.7522C41.5897 11.8414 41.5815 11.9316 41.5807 12.0221C41.5637 12.1111 41.5555 12.2015 41.5562 12.292H32.5254C32.5907 12.7827 32.7253 13.2039 32.9292 13.5555C33.1332 13.9072 33.3861 14.2016 33.6879 14.4388C33.9897 14.676 34.3202 14.8476 34.6791 14.954C35.0366 15.0601 35.4076 15.1139 35.7804 15.1135C36.5146 15.1135 37.1224 14.9459 37.6038 14.6105C38.085 14.2752 38.4644 13.854 38.7417 13.3469L41.4094 14.6719V14.6719ZM38.4971 10.0102C38.4807 9.79765 38.4114 9.56047 38.289 9.29871C38.1666 9.03706 37.9872 8.79165 37.7506 8.56271C37.514 8.33365 37.2204 8.14553 36.8695 7.99835C36.5187 7.85118 36.0986 7.77753 35.6091 7.77753C34.9239 7.77753 34.3202 7.97388 33.7981 8.36635C33.276 8.75894 32.9089 9.30694 32.6967 10.0102H38.4971V10.0102Z" fill="white"/>
<path fill-rule="evenodd" clip-rule="evenodd" d="M54.0379 0V11.9975C54.0379 12.9789 53.887 13.8418 53.5851 14.586C53.2833 15.3302 52.8754 15.9518 52.3614 16.4506C51.8475 16.9495 51.2438 17.3258 50.5504 17.5793C49.8569 17.8328 49.1105 17.9595 48.311 17.9595C46.9242 17.9595 45.7127 17.5833 44.6767 16.8309C43.6406 16.0786 42.9187 15.0399 42.5107 13.7151L45.5455 12.4638C45.7577 13.2488 46.1002 13.8376 46.5734 14.2302C47.0466 14.6228 47.6258 14.8191 48.311 14.8191C49.0778 14.8191 49.6734 14.5738 50.0976 14.0831C50.5219 13.5924 50.7339 12.9053 50.7339 12.0221V3.31224H45.5547V0H54.0379V0ZM64.9314 17.2856C64.7901 17.3559 64.6463 17.4211 64.5003 17.4811C63.7253 17.8001 62.8728 17.9595 61.9428 17.9595C61.0129 17.9595 60.1603 17.8001 59.3853 17.4811C58.6103 17.1621 57.9414 16.7205 57.3785 16.1562C56.8156 15.5919 56.3751 14.9172 56.057 14.1321C55.7388 13.3469 55.5797 12.4882 55.5797 11.5559C55.5797 10.6236 55.7388 9.76494 56.057 8.97977C56.3751 8.19471 56.8156 7.52 57.3785 6.95565C57.9414 6.39129 58.6103 5.94977 59.3853 5.63071C60.1603 5.31177 61.0129 5.15235 61.9428 5.15235C62.8728 5.15235 63.7253 5.31177 64.5003 5.63071C65.2753 5.94977 65.9443 6.39129 66.5071 6.95565C67.0701 7.52 67.5106 8.19471 67.8288 8.97977C68.1469 9.76494 68.3059 10.6236 68.3059 11.5559C68.3059 12.4882 68.1469 13.3469 67.8288 14.1321C67.5106 14.9172 67.0701 15.5919 66.5071 16.1562C66.4587 16.2049 66.4093 16.2526 66.3592 16.2994L67.485 18.0252C67.6686 18.0441 67.8455 18.1038 68.0031 18.1999C68.1607 18.2961 68.2948 18.4263 68.3958 18.5811L70.8001 22.2659C70.8301 22.312 70.8509 22.3636 70.8611 22.4178C70.8713 22.4719 70.8707 22.5275 70.8595 22.5815C70.8482 22.6354 70.8265 22.6866 70.7955 22.7321C70.7645 22.7776 70.7248 22.8166 70.6788 22.8467L69.1611 23.842C69.1151 23.8722 69.0636 23.893 69.0096 23.9032C68.9556 23.9134 68.9001 23.9128 68.8463 23.9016C68.7925 23.8903 68.7414 23.8685 68.696 23.8374C68.6506 23.8063 68.6118 23.7666 68.5817 23.7205L66.1775 20.0356C66.0766 19.8809 66.0113 19.7055 65.9866 19.5222C65.9618 19.339 65.9782 19.1525 66.0345 18.9764L64.9314 17.2856V17.2856ZM61.9428 14.9908C62.3507 14.9908 62.7464 14.9132 63.1298 14.7578C63.5105 14.6042 63.856 14.3746 64.1455 14.0831C64.4391 13.7886 64.6716 13.4287 64.843 13.0035C65.0143 12.5782 65.1 12.0956 65.1 11.5559C65.1 11.0161 65.0143 10.5336 64.843 10.1084C64.6716 9.68306 64.4391 9.3233 64.1455 9.02882C63.856 8.73728 63.5105 8.50773 63.1298 8.35412C62.753 8.20001 62.3498 8.12086 61.9428 8.12106C61.5187 8.12106 61.1189 8.19871 60.7437 8.35412C60.3684 8.50953 60.0339 8.73447 59.7402 9.02882C59.4466 9.3233 59.214 9.68306 59.0428 10.1084C58.8714 10.5336 58.7858 11.0161 58.7858 11.5559C58.7858 12.0956 58.8714 12.5782 59.0428 13.0035C59.214 13.4287 59.4466 13.7886 59.7402 14.0831C60.0339 14.3774 60.3684 14.6024 60.7437 14.7578C61.1189 14.9132 61.5187 14.9908 61.9428 14.9908Z" fill="white"/>
<path d="M69.8721 0H73.0782V5.27506L72.8824 6.99247H73.0782C73.3719 6.48541 73.8286 6.05188 74.4487 5.69212C75.0687 5.33224 75.8355 5.15235 76.7492 5.15235C77.516 5.15235 78.2462 5.31176 78.9396 5.63071C79.633 5.94976 80.2448 6.39129 80.7751 6.95565C81.3053 7.52 81.7255 8.19471 82.0355 8.97977C82.3455 9.76494 82.5005 10.6236 82.5005 11.5559C82.5005 12.4882 82.3455 13.3469 82.0355 14.1321C81.7255 14.9172 81.3053 15.5919 80.7751 16.1562C80.2448 16.7205 79.633 17.1621 78.9396 17.4811C78.2462 17.8001 77.516 17.9595 76.7492 17.9595C75.8355 17.9595 75.0687 17.7796 74.4487 17.4198C73.8286 17.0599 73.3719 16.6265 73.0782 16.1194H72.8824V17.5669H69.8721V0ZM76.0884 14.9908C76.5126 14.9908 76.9164 14.9091 77.2998 14.7454C77.6795 14.5844 78.0245 14.3512 78.3155 14.0585C78.6093 13.7641 78.8457 13.4042 79.0253 12.9789C79.2047 12.5536 79.2945 12.0793 79.2945 11.5559C79.2945 11.0325 79.2047 10.5582 79.0253 10.1329C78.8457 9.70765 78.6093 9.34777 78.3155 9.05341C78.0244 8.76073 77.6795 8.52741 77.2998 8.36635C76.9164 8.20282 76.5126 8.12106 76.0884 8.12106C75.6642 8.12106 75.2603 8.19871 74.8769 8.35412C74.4963 8.50773 74.1507 8.73728 73.8613 9.02882C73.5676 9.32329 73.3311 9.68306 73.1516 10.1084C72.9721 10.5336 72.8824 11.0161 72.8824 11.5559C72.8824 12.0956 72.9721 12.5782 73.1516 13.0035C73.3311 13.4287 73.5676 13.7886 73.8613 14.0831C74.1507 14.3746 74.4963 14.6042 74.8769 14.7578C75.2603 14.9132 75.6642 14.9908 76.0884 14.9908ZM88.8147 17.9595C88.0316 17.9595 87.334 17.8614 86.7222 17.6652C86.1104 17.4688 85.5802 17.2112 85.1314 16.8922C84.6828 16.5733 84.3034 16.2053 83.9934 15.7882C83.6834 15.3711 83.4468 14.9499 83.2837 14.5247L86.1471 13.2979C86.4244 13.9194 86.7956 14.3815 87.2607 14.6841C87.7256 14.9867 88.2436 15.138 88.8147 15.138C89.4021 15.138 89.8671 15.0318 90.2097 14.8191C90.5523 14.6065 90.7236 14.3529 90.7236 14.0585C90.7236 13.7314 90.5809 13.4655 90.2953 13.2611C90.0098 13.0567 89.5163 12.8726 88.8147 12.7091L87.1261 12.3411C86.7508 12.2593 86.3633 12.1285 85.9636 11.9485C85.5699 11.7724 85.2031 11.5411 84.8744 11.2615C84.5482 10.9834 84.2789 10.6481 84.0668 10.2555C83.8547 9.86306 83.7486 9.40506 83.7486 8.88165C83.7486 8.29282 83.8751 7.76941 84.128 7.31141C84.3809 6.85341 84.7276 6.46494 85.1681 6.146C85.6087 5.82706 86.1267 5.58165 86.7222 5.41C87.3177 5.23824 87.9581 5.15235 88.6434 5.15235C89.7855 5.15235 90.8052 5.37718 91.7026 5.82706C92.6 6.27682 93.2607 6.99247 93.6849 7.97388L90.9194 9.10247C90.691 8.62812 90.3566 8.28459 89.916 8.072C89.4755 7.85929 89.0349 7.75306 88.5945 7.75306C88.1376 7.75306 87.7378 7.84706 87.3953 8.03518C87.0526 8.22329 86.8813 8.46459 86.8813 8.75894C86.8813 9.03706 87.0241 9.25788 87.3096 9.42141C87.5951 9.58494 87.9826 9.73212 88.4721 9.86306L90.3076 10.3047C91.5313 10.5991 92.4409 11.0693 93.0364 11.7154C93.6319 12.3615 93.9297 13.1261 93.9297 14.0094C93.9297 14.5328 93.8073 15.0318 93.5625 15.506C93.3179 15.9804 92.9712 16.4015 92.5224 16.7696C92.0738 17.1376 91.5354 17.428 90.9072 17.6406C90.279 17.8532 89.5816 17.9595 88.8147 17.9595V17.9595Z" fill="white"/>
</svg>
